<svg id="Capa_1" enable-background="new 0 0 512 512" height="512" viewBox="0 0 512 512" width="512" xmlns="http://www.w3.org/2000/svg"><g><path d="m240 287v-30c0-41.355-33.645-75-75-75h-75v105c0 41.355 33.645 75 75 75s75-33.645 75-75zm-75-75c19.557 0 36.239 12.539 42.43 30h-42.43c-19.557 0-36.239-12.539-42.43-30zm0 120c-24.813 0-45-20.187-45-45v-30.041c12.544 9.438 28.129 15.041 45 15.041h45v15c0 24.813-20.187 45-45 45z"/><path d="m270 384.74v-22.74h-210v22.74c-37.218 24.93-60 67.167-60 112.26v15h330v-15c0-45.093-22.782-87.33-60-112.26zm-238.914 97.26c3.214-22.092 13.44-42.575 28.914-58.434v58.434zm208.914 0h-150v-90h150zm30 0v-58.434c15.474 15.859 25.7 36.342 28.914 58.434z"/><path d="m336.394 64.393-40.607 40.607 40.607 40.607 21.212-21.214-19.393-19.393 19.393-19.393z"/><path d="m396.394 85.607 19.393 19.393-19.393 19.393 21.212 21.214 40.607-40.607-40.607-40.607z"/><path d="m467 0h-180c-24.813 0-45 20.187-45 45v120c0 24.813 20.187 45 45 45h15v77.805l89.962-77.805h75.038c24.813 0 45-20.187 45-45v-120c0-24.813-20.187-45-45-45zm15 165c0 8.271-6.729 15-15 15h-86.212l-48.788 42.195v-42.195h-45c-8.271 0-15-6.729-15-15v-120c0-8.271 6.729-15 15-15h180c8.271 0 15 6.729 15 15z"/></g></svg>